<?xml version="1.0" standalone="no"?>
<!DOCTYPE svg PUBLIC "-//W3C//DTD SVG 20010904//EN"
 "http://www.w3.org/TR/2001/REC-SVG-20010904/DTD/svg10.dtd">
<svg version="1.0" xmlns="http://www.w3.org/2000/svg"
 width="256.000000pt" height="256.000000pt" viewBox="0 0 256.000000 256.000000"
 preserveAspectRatio="xMidYMid meet">

<g transform="translate(0.000000,256.000000) scale(0.100000,-0.100000)"
fill="#000000" stroke="none">
<path d="M1240 1884 c-87 -13 -145 -30 -219 -66 -108 -51 -220 -159 -273 -263
-98 -191 -102 -394 -11 -578 46 -91 170 -218 260 -265 283 -148 642 -56 821
212 74 111 95 172 96 283 1 91 0 93 -31 124 -29 30 -38 33 -112 37 -114 6
-168 -4 -203 -38 -40 -40 -40 -100 1 -141 24 -24 38 -29 76 -29 43 0 46 -1 40
-22 -14 -47 -72 -132 -118 -174 -166 -150 -406 -147 -560 8 -110 110 -154 285
-107 424 54 156 191 261 374 284 76 9 109 32 122 87 10 38 -20 91 -61 109 -34
14 -46 15 -95 8z m660 -677 c0 -2 -10 -12 -22 -23 l-23 -19 19 23 c18 21 26
27 26 19z m-1040 -11 c0 -2 -8 -10 -17 -17 -16 -13 -17 -12 -4 4 13 16 21 21
21 13z"/>
<path d="M1262 1358 c-36 -10 -72 -57 -72 -96 0 -31 26 -79 49 -92 28 -15 93
-12 117 5 47 32 56 122 15 159 -27 24 -71 34 -109 24z"/>
</g>
</svg>
